<?xml version="1.0" encoding="UTF-8" standalone="no"?>
<!-- Created with Inkscape (http://www.inkscape.org/) -->

<svg
   width="203.38mm"
   height="27.056999mm"
   viewBox="0 0 203.38 27.056999"
   version="1.1"
   id="svg1089"
   xmlns="http://www.w3.org/2000/svg"
   xmlns:svg="http://www.w3.org/2000/svg">
  <defs
     id="defs1086" />
  <g
     id="layer1">
    <g
       id="g3091">
      <g
         aria-label="BENDGAME"
         id="text2889"
         style="font-weight:bold;font-size:111.401px;line-height:1.25;font-family:'Sector 034';-inkscape-font-specification:'Sector 034 Bold';letter-spacing:-2.85727px;word-spacing:0px;stroke-width:0.439742"
         transform="matrix(0.33969515,0,0,0.33969515,-3.9611667,-266.91178)">
        <path
           d="m 59.005786,824.72907 q 6.795461,1.44822 10.917298,6.79547 4.121837,5.23584 4.121837,12.0313 0,9.80329 -6.906862,15.59614 -6.795461,5.68146 -19.049572,5.68146 H 11.66036 v -78.20351 h 35.202716 q 11.919908,0 18.603968,5.45865 6.795461,5.45865 6.795461,14.81633 0,6.90687 -3.676233,11.47431 -3.564832,4.56744 -9.580486,6.34985 z m -28.295855,-6.46125 h 12.476912 q 4.678842,0 7.129664,-2.00522 2.562223,-2.11662 2.562223,-6.12706 0,-4.01043 -2.562223,-6.12705 -2.450822,-2.11662 -7.129664,-2.11662 H 30.709931 Z m 14.036526,31.19228 q 4.790243,0 7.352466,-2.11662 2.673625,-2.22802 2.673625,-6.34986 0,-4.12184 -2.785026,-6.46126 -2.673624,-2.33942 -7.463867,-2.33942 H 30.709931 v 17.26716 z"
           style="letter-spacing:-5.00298px;fill:#ffffff"
           id="path13021" />
        <path
           d="m 99.120042,801.89187 v 15.81894 h 25.510828 v 14.70493 H 99.120042 V 849.5715 H 127.9729 v 15.26194 H 80.070471 V 786.62993 H 127.9729 v 15.26194 z"
           style="letter-spacing:-5.91311px;fill:#ffffff"
           id="path13023" />
        <path
           d="M 204.38496,864.83344 H 185.33539 L 153.4747,816.5968 v 48.23664 h -19.04957 v -78.20351 h 19.04957 l 31.86069,48.45944 v -48.45944 h 19.04957 z"
           style="letter-spacing:-6.15582px;fill:#ffffff"
           id="path13025" />
        <path
           d="m 241.34121,786.62993 q 12.36551,0 21.61179,4.90165 9.24629,4.90164 14.25933,13.81372 5.12445,8.80068 5.12445,20.38638 0,11.47431 -5.12445,20.38639 -5.01304,8.91208 -14.37073,13.81372 -9.24628,4.90165 -21.50039,4.90165 h -29.29846 v -78.20351 z m -1.22541,61.71616 q 10.80589,0 16.82155,-5.90426 6.01565,-5.90425 6.01565,-16.71015 0,-10.80589 -6.01565,-16.82155 -6.01566,-6.01565 -16.82155,-6.01565 h -9.02348 v 45.45161 z"
           style="letter-spacing:-1.11427px;fill:#ffffff"
           id="path13027" />
        <path
           d="m 343.82979,811.36095 q -2.11662,-3.89903 -6.12706,-5.90425 -3.89903,-2.11662 -9.24628,-2.11662 -9.24628,0 -14.81633,6.12706 -5.57005,6.01565 -5.57005,16.15314 0,10.8059 5.79285,16.93295 5.90425,6.01566 16.15314,6.01566 7.01827,0 11.80851,-3.56483 4.90164,-3.56484 7.12966,-10.2489 h -24.17401 v -14.03652 h 41.44117 v 17.71276 q -2.11662,7.12966 -7.24107,13.25672 -5.01304,6.12705 -12.81111,9.91469 -7.79807,3.78763 -17.60136,3.78763 -11.5857,0 -20.72059,-5.01304 -9.02348,-5.12445 -14.14792,-14.14793 -5.01305,-9.02348 -5.01305,-20.60919 0,-11.5857 5.01305,-20.60918 5.12444,-9.13488 14.14792,-14.14793 9.02349,-5.12445 20.60919,-5.12445 14.03653,0 23.61701,6.79547 9.69189,6.79546 12.81112,18.82676 z"
           style="letter-spacing:-5.75316px;fill:#ffffff"
           id="path13029" />
        <path
           d="M 419.73347,851.01971 H 390.5464 l -4.67884,13.81373 h -19.94078 l 28.29586,-78.20351 h 22.0574 l 28.29585,78.20351 h -20.16358 z m -4.90165,-14.70493 -9.69188,-28.63006 -9.58049,28.63006 z"
           style="font-family:Poppins;-inkscape-font-specification:'Poppins Bold';fill:#ffffff"
           id="path13031" />
        <path
           d="m 538.86023,786.62993 v 78.20351 h -19.04957 v -46.89983 l -17.48995,46.89983 h -15.37334 l -17.60136,-47.01123 v 47.01123 h -19.04957 v -78.20351 h 22.503 l 21.946,54.14089 21.72319,-54.14089 z"
           style="letter-spacing:-5.73109px;fill:#ffffff"
           id="path13033" />
        <path
           d="m 565.88095,801.89187 v 15.81894 h 25.51083 v 14.70493 h -25.51083 v 17.15576 h 28.85286 v 15.26194 h -47.90243 v -78.20351 h 47.90243 v 15.26194 z"
           style="font-family:Poppins;-inkscape-font-specification:'Poppins Bold';fill:#ffffff"
           id="path13035" />
      </g>
      <g
         aria-label="™"
         id="text26371"
         style="font-size:7.05556px;line-height:1.25;font-family:Poppins;-inkscape-font-specification:Poppins;letter-spacing:-0.264583px;word-spacing:0px;stroke-width:0.264583;fill:#ffffff">
        <path
           d="m 198.44131,-1.5007401e-4 h 1.70745 V 0.39496129 h -0.59972 V 2.4834071 h -0.50801 l 0.007,-2.08844581 h -0.60678 z m 4.93889,0 V 2.4834071 h -0.47272 l -0.007,-1.79916784 -0.76906,1.79916784 h -0.35983 l -0.762,-1.82739008 V 2.4834071 h -0.46567 V -1.5007401e-4 h 0.65617 L 201.96909,1.8836845 202.75931,-1.5007401e-4 Z"
           id="path3059"
           style="fill:#ffffff" />
      </g>
    </g>
  </g>
</svg>
