<?xml version="1.0" encoding="UTF-8" standalone="no"?>
<!-- Created with Inkscape (http://www.inkscape.org/) -->

<svg
   width="235.967mm"
   height="20.653999mm"
   viewBox="0 0 235.967 20.653999"
   version="1.1"
   id="svg2434"
   inkscape:version="1.1.1 (3bf5ae0d25, 2021-09-20)"
   sodipodi:docname="logo.svg"
   xmlns:inkscape="http://www.inkscape.org/namespaces/inkscape"
   xmlns:sodipodi="http://sodipodi.sourceforge.net/DTD/sodipodi-0.dtd"
   xmlns:xlink="http://www.w3.org/1999/xlink"
   xmlns="http://www.w3.org/2000/svg"
   xmlns:svg="http://www.w3.org/2000/svg"
   xmlns:rdf="http://www.w3.org/1999/02/22-rdf-syntax-ns#"
   xmlns:cc="http://creativecommons.org/ns#"
   xmlns:dc="http://purl.org/dc/elements/1.1/">
  <title
     id="title2620">Volcano Lair Logo</title>
  <sodipodi:namedview
     id="namedview2436"
     pagecolor="#ffffff"
     bordercolor="#666666"
     borderopacity="1.0"
     inkscape:pageshadow="2"
     inkscape:pageopacity="0.0"
     inkscape:pagecheckerboard="0"
     inkscape:document-units="mm"
     showgrid="false"
     inkscape:zoom="0.64052329"
     inkscape:cx="365.3263"
     inkscape:cy="144.41317"
     inkscape:window-width="1920"
     inkscape:window-height="1017"
     inkscape:window-x="-8"
     inkscape:window-y="-8"
     inkscape:window-maximized="1"
     inkscape:current-layer="layer1" />
  <defs
     id="defs2431">
    <color-profile
       name="sRGB-IEC61966-2.1"
       xlink:href="file:///C:/WINDOWS/system32/spool/drivers/color/sRGB%20Color%20Space%20Profile.icm"
       id="color-profile2624" />
  </defs>
  <g
     inkscape:label="Layer 1"
     inkscape:groupmode="layer"
     id="layer1">
    <g
       id="g2592"
       transform="translate(-0.56865671,-1.6520769)">
      <g
         id="g89481"
         transform="matrix(0.03239089,0,0,0.03239089,-1.2950371,-50.505326)"
         style="fill:#e6ddc5;fill-opacity:1">
        <path
           style="color:#000000;fill:#e6ddc5;fill-opacity:1;-inkscape-stroke:none;paint-order:markers stroke fill"
           d="m 111.45751,2154.5088 -53.919918,93.3906 H 793.82858 l -40.9141,-70.8671 -13.0039,-22.5235 z"
           id="path89477"
           inkscape:export-filename="C:\Users\User\Downloads\volcanolairlogo.png"
           inkscape:export-xdpi="127"
           inkscape:export-ydpi="127" />
        <path
           style="color:#000000;fill:#e6ddc5;fill-opacity:1;-inkscape-stroke:none;paint-order:markers stroke fill"
           d="m 425.68408,1610.251 -107.9395,186.9551 h 215.877 z"
           id="path89479"
           inkscape:export-filename="C:\Users\User\Downloads\volcanolairlogo.png"
           inkscape:export-xdpi="127"
           inkscape:export-ydpi="127" />
      </g>
      <g
         aria-label="VOLCANO LAIR"
         id="text89519"
         style="font-size:115.099px;line-height:1.25;font-family:Eurostile;-inkscape-font-specification:Eurostile;letter-spacing:-4.23068px;word-spacing:0px;fill:#e6ddc5;stroke-width:2.15812"
         transform="matrix(0.26458333,0,0,0.26458333,-331.09645,-555.55822)">
        <path
           d="m 1416.7368,2106.6662 h 15.399 l -24.7283,76.7139 h -22.3679 l -24.5035,-76.7139 h 15.118 l 14.3873,43.4431 q 2.0233,6.2383 6.0135,20.9067 h 0.3934 l 1.4612,-5.2267 q 2.6977,-9.7789 4.6085,-15.6238 z"
           id="path89727" />
        <path
           d="m 1466.1215,2105.9918 q 20.9067,0 26.9202,6.9689 6.0134,6.9127 6.0134,31.0227 0,26.3582 -6.0696,33.2147 -6.0135,6.8564 -29.2244,6.8564 -20.9066,0 -27.0325,-6.744 -6.1259,-6.8003 -6.1259,-29.8426 0,-27.4259 6.0135,-34.451 6.0135,-7.0251 29.5053,-7.0251 z m -1.124,12.4765 q -14.6683,0 -17.1412,3.7655 -2.4728,3.7654 -2.4728,26.0771 0,16.523 2.8662,19.895 2.9225,3.3721 17.085,3.3721 13.5444,0 16.242,-3.7655 2.6977,-3.8216 2.6977,-23.0422 0,-19.2769 -2.5853,-22.7613 -2.529,-3.5407 -16.6916,-3.5407 z"
           id="path89729" />
        <path
           d="m 1519.2156,2106.6662 v 63.6754 h 35.9684 v 13.0385 h -50.5244 v -76.7139 z"
           style="letter-spacing:-1.81486px"
           id="path89731" />
        <path
           d="m 1608.1086,2156.0104 h 14.6122 v 2.6414 q 0,16.0172 -5.8449,20.7381 -5.8449,4.6646 -25.8523,4.6646 -22.7051,0 -27.9317,-7.4185 -5.2267,-7.4184 -5.2267,-39.6776 0,-18.9959 7.0813,-24.9531 7.0813,-6.0135 29.6177,-6.0135 16.4106,0 21.9183,4.9456 5.5077,4.8895 5.5077,19.5017 l 0.056,1.7422 h -14.6122 v -1.967 q 0,-7.5309 -2.8662,-9.6103 -2.8101,-2.1357 -12.9262,-2.1357 -13.5444,0 -16.2982,3.3159 -2.6976,3.3158 -2.6976,19.6702 0,22.0307 2.4166,26.0771 2.4728,4.0465 15.8486,4.0465 10.8467,0 14.0502,-2.248 3.2596,-2.2481 3.2596,-9.8914 z"
           style="letter-spacing:-1.35814px"
           id="path89733" />
        <path
           d="m 1676.9451,2168.6555 h -33.1022 l -4.777,14.7246 h -15.399 l 25.5151,-76.7139 h 21.862 l 25.9086,76.7139 h -15.118 z m -3.372,-10.7343 -13.2634,-39.9587 -13.0385,39.9587 z"
           style="letter-spacing:-2.01919px"
           id="path89735" />
        <path
           d="m 1772.7713,2106.6662 v 76.7139 h -24.6721 l -21.9183,-42.0943 q -1.6298,-3.1472 -5.1142,-11.0153 l -2.4729,-5.5077 -2.4166,-5.5077 h -0.562 l 0.2248,5.0581 0.1686,5.0019 0.1124,10.0599 v 44.0051 h -14.556 v -76.7139 h 24.6721 l 19.9513,38.8909 q 2.6414,5.1704 6.1259,12.5327 l 2.9224,6.2383 2.9224,6.2945 h 0.5058 l -0.1686,-4.9457 -0.1686,-4.9456 -0.1124,-9.8914 v -44.1737 z"
           id="path89737" />
        <path
           d="m 1813.8946,2105.9918 q 20.9067,0 26.9201,6.9689 6.0135,6.9127 6.0135,31.0227 0,26.3582 -6.0697,33.2147 -6.0134,6.8564 -29.2243,6.8564 -20.9067,0 -27.0326,-6.744 -6.1258,-6.8003 -6.1258,-29.8426 0,-27.4259 6.0134,-34.451 6.0135,-7.0251 29.5054,-7.0251 z m -1.124,12.4765 q -14.6684,0 -17.1412,3.7655 -2.4729,3.7654 -2.4729,26.0771 0,16.523 2.8663,19.895 2.9224,3.3721 17.085,3.3721 13.5444,0 16.242,-3.7655 2.6976,-3.8216 2.6976,-23.0422 0,-19.2769 -2.5852,-22.7613 -2.529,-3.5407 -16.6916,-3.5407 z"
           id="path89739" />
        <path
           d="m 1891.5327,2106.6662 v 63.6754 h 35.9684 v 13.0385 h -50.5244 v -76.7139 z"
           style="letter-spacing:5.36px"
           id="path89741" />
        <path
           d="m 1986.6452,2168.6555 h -33.1022 l -4.7771,14.7246 h -15.399 l 25.5151,-76.7139 h 21.8621 l 25.9085,76.7139 h -15.118 z m -3.3721,-10.7343 -13.2633,-39.9587 -13.0386,39.9587 z"
           style="letter-spacing:-1.54px"
           id="path89743" />
        <path
           d="m 2026.3002,2106.6662 v 76.7139 h -14.5559 v -76.7139 z"
           style="letter-spacing:-7.53px"
           id="path89745" />
        <path
           d="m 2032.3709,2183.3801 v -76.7139 h 37.823 q 14.1064,0 19.4454,4.8895 5.3391,4.8894 5.3391,17.7032 0,11.6335 -2.6976,15.9048 -2.6415,4.2712 -10.903,5.901 v 0.5058 q 12.7576,0.7868 12.7576,14.8932 v 16.9164 h -14.556 v -13.9939 q 0,-11.8584 -11.6897,-11.8584 h -20.9629 v 25.8523 z m 14.5559,-38.104 h 20.9067 q 7.4747,0 9.8913,-2.6415 2.4728,-2.6976 2.4728,-10.7343 0,-8.2053 -2.1356,-10.5657 -2.0794,-2.4167 -9.2169,-2.4167 h -21.9183 z"
           id="path89747" />
      </g>
      <g
         aria-label="™"
         id="text89543"
         style="font-size:53.3333px;line-height:1.25;font-family:'Futura Std';-inkscape-font-specification:'Futura Std';letter-spacing:-1px;word-spacing:0px;fill:#e6ddc5"
         transform="matrix(0.26458333,0,0,0.26458333,-331.09645,-555.55822)">
        <path
           d="m 2113.1417,2109.6376 v 16.6145 h -4.2709 v -16.6145 h -5.9635 v -3.6459 h 16.3802 v 3.6459 z m 32.2395,-3.6459 v 20.2604 h -4.2708 v -11.0416 q 0,-1.3282 0.078,-2.9427 l 0.078,-1.4844 0.026,-0.5729 -0.1823,0.5468 -0.4687,1.3803 q -0.625,1.8749 -0.9896,2.7864 l -4.5834,11.3281 h -3.802 l -4.6094,-11.25 q -0.4167,-1.0677 -0.9896,-2.7604 l -0.4687,-1.3802 q -0.026,-0.078 -0.2084,-0.5729 l 0.052,0.5729 q 0.1563,3.0208 0.1563,4.349 v 11.0416 h -4.2709 v -20.2604 h 6.6667 l 3.7239,9.349 q 0.3907,0.9375 0.9896,2.7604 l 0.4688,1.3542 0.3646,1.0677 0.3385,-1.0417 q 0.9635,-2.9688 1.4323,-4.1406 l 3.6719,-9.349 z"
           style="font-family:Eurostile;-inkscape-font-specification:Eurostile"
           id="path89812" />
      </g>
    </g>
  </g>
  <metadata
     id="metadata2616">
    <rdf:RDF>
      <cc:Work
         rdf:about="">
        <dc:title>Volcano Lair Logo</dc:title>
        <dc:date>20 Jan 2023</dc:date>
        <dc:creator>
          <cc:Agent>
            <dc:title>Cameron Kilgore</dc:title>
          </cc:Agent>
        </dc:creator>
        <dc:rights>
          <cc:Agent>
            <dc:title>Volcano Lair LLC</dc:title>
          </cc:Agent>
        </dc:rights>
        <dc:publisher>
          <cc:Agent>
            <dc:title>Volcano Lair LLC</dc:title>
          </cc:Agent>
        </dc:publisher>
        <cc:license
           rdf:resource="(C) 2022 Volcano Lair LLC" />
      </cc:Work>
    </rdf:RDF>
  </metadata>
</svg>
