<?xml version="1.0" standalone="no"?>
<!DOCTYPE svg PUBLIC "-//W3C//DTD SVG 20010904//EN"
 "http://www.w3.org/TR/2001/REC-SVG-20010904/DTD/svg10.dtd">
<svg version="1.0" xmlns="http://www.w3.org/2000/svg"
 width="1000.000000pt" height="1000.000000pt" viewBox="0 0 1000.000000 1000.000000"
 preserveAspectRatio="xMidYMid meet">
<metadata>
Created by potrace 1.14, written by Peter Selinger 2001-2017
</metadata>
<g transform="translate(0.000000,1000.000000) scale(0.100000,-0.100000)"
fill="#000000" stroke="none">
<path d="M0 5000 l0 -5000 5000 0 5000 0 0 5000 0 5000 -5000 0 -5000 0 0
-5000z m5710 2989 c388 -672 706 -1228 708 -1235 3 -12 -217 -14 -1418 -14
-1204 0 -1421 2 -1418 14 4 18 1412 2456 1418 2456 3 0 322 -550 710 -1221z
m-3121 -1831 c49 -150 227 -687 395 -1194 306 -924 378 -1156 524 -1684 44
-156 84 -286 90 -288 6 -2 17 21 25 50 9 29 50 176 92 326 119 429 168 583
586 1861 l393 1201 408 0 c224 0 408 -3 408 -7 1 -5 -295 -927 -657 -2051
l-658 -2042 -599 2 -598 3 -649 2030 c-357 1117 -651 2038 -654 2048 -6 16 17
17 398 17 l405 0 91 -272z m3801 -1428 l0 -1700 960 0 960 0 0 -350 0 -350
-1350 0 -1350 0 0 2050 0 2050 390 0 390 0 0 -1700z m3122 -3328 l357 -617
-2435 -3 c-1339 -1 -3529 -1 -4868 0 l-2435 3 357 618 356 617 4156 0 4156 0
356 -618z"/>
</g>
</svg>
